<svg width="13" height="9" viewBox="0 0 13 9" fill="none" xmlns="http://www.w3.org/2000/svg">
<path id="Rounded Rectangle 702 copy 24" fill-rule="evenodd" clip-rule="evenodd" d="M1.20245 1.28724C1.39148 1.09823 1.64783 0.992048 1.91513 0.992048C2.18242 0.992048 2.43877 1.09823 2.62781 1.28724L6.93918 5.61351L11.2798 1.28724C11.4688 1.09823 11.7252 0.992048 11.9925 0.992048C12.2598 0.992048 12.5161 1.09823 12.7051 1.28724C12.7986 1.3801 12.8727 1.49054 12.9233 1.61218C12.9739 1.73382 13 1.86427 13 1.99602C13 2.12777 12.9739 2.25821 12.9233 2.37985C12.8727 2.50149 12.7986 2.61193 12.7051 2.7048L7.64885 7.74587C7.45899 7.93372 7.2027 8.03906 6.93564 8.03906C6.66859 8.03906 6.41232 7.93372 6.22247 7.74587L1.19842 2.7048C1.10499 2.6118 1.03094 2.50119 0.980524 2.37939C0.93011 2.25759 0.904349 2.12701 0.904725 1.99519C0.9051 1.86336 0.931603 1.7329 0.982708 1.61138C1.03381 1.48987 1.10849 1.3797 1.20245 1.28724Z" fill="url(#paint0_linear_455_3582)"/>
<defs>
<linearGradient id="paint0_linear_455_3582" x1="18.3807" y1="-2.13234" x2="7.221" y2="15.5851" gradientUnits="userSpaceOnUse">
<stop stop-color="#0A6FCC"/>
<stop offset="1" stop-color="#3BED4D" stop-opacity="0.75"/>
</linearGradient>
</defs>
</svg>
