<svg width="39" height="41" viewBox="0 0 39 41" fill="none" xmlns="http://www.w3.org/2000/svg">
<g opacity="0.2">
<rect y="0.793945" width="38.9908" height="40" rx="19.4954" fill="#011624" fill-opacity="0.1"/>
<g clip-path="url(#clip0_207_541)">
<path fill-rule="evenodd" clip-rule="evenodd" d="M22.698 15.0904C22.8855 15.278 22.9908 15.5323 22.9908 15.7974C22.9908 16.0626 22.8855 16.3169 22.698 16.5044L18.4062 20.7814L22.698 25.0874C22.8855 25.275 22.9908 25.5293 22.9908 25.7944C22.9908 26.0596 22.8855 26.3139 22.698 26.5014C22.6059 26.5941 22.4963 26.6677 22.3757 26.7179C22.255 26.7681 22.1256 26.7939 21.9949 26.7939C21.8642 26.7939 21.7348 26.7681 21.6141 26.7179C21.4934 26.6677 21.3839 26.5941 21.2918 26.5014L16.2909 21.4854C16.1045 21.2971 16 21.0429 16 20.7779C16 20.513 16.1045 20.2588 16.2909 20.0704L21.2918 15.0864C21.384 14.9937 21.4937 14.9203 21.6146 14.8703C21.7354 14.8203 21.8649 14.7947 21.9957 14.7951C22.1265 14.7954 22.2559 14.8217 22.3764 14.8724C22.497 14.9231 22.6063 14.9972 22.698 15.0904Z" fill="url(#paint0_linear_207_541)"/>
</g>
</g>
<defs>
<linearGradient id="paint0_linear_207_541" x1="26.0903" y1="32.1317" x2="8.51412" y2="21.061" gradientUnits="userSpaceOnUse">
<stop stop-color="#0A6FCC"/>
<stop offset="1" stop-color="#3BED4D" stop-opacity="0.75"/>
</linearGradient>
<clipPath id="clip0_207_541">
<rect width="12" height="6.99085" fill="white" transform="matrix(0 -1 1 0 16 26.7939)"/>
</clipPath>
</defs>
</svg>
