<svg width="39" height="41" viewBox="0 0 39 41" fill="none" xmlns="http://www.w3.org/2000/svg">
<g opacity="0.2">
<rect x="39.0001" y="40.7939" width="38.9908" height="40" rx="19.4954" transform="rotate(-180 39.0001 40.7939)" fill="#011624" fill-opacity="0.1"/>
<g clip-path="url(#clip0_207_538)">
<path fill-rule="evenodd" clip-rule="evenodd" d="M16.3021 26.4975C16.1146 26.3099 16.0093 26.0556 16.0093 25.7905C16.0093 25.5253 16.1146 25.271 16.3021 25.0835L20.5939 20.8065L16.3021 16.5005C16.1146 16.3129 16.0093 16.0586 16.0093 15.7935C16.0093 15.5283 16.1146 15.274 16.3021 15.0865C16.3942 14.9938 16.5038 14.9202 16.6245 14.87C16.7451 14.8198 16.8745 14.7939 17.0052 14.7939C17.1359 14.7939 17.2653 14.8198 17.386 14.87C17.5067 14.9202 17.6162 14.9938 17.7084 15.0865L22.7093 20.1024C22.8956 20.2908 23.0001 20.545 23.0001 20.81C23.0001 21.0749 22.8956 21.3291 22.7093 21.5175L17.7084 26.5015C17.6161 26.5941 17.5064 26.6676 17.3856 26.7176C17.2647 26.7676 17.1352 26.7932 17.0044 26.7928C16.8736 26.7924 16.7442 26.7662 16.6237 26.7155C16.5031 26.6648 16.3938 26.5907 16.3021 26.4975Z" fill="url(#paint0_linear_207_538)"/>
</g>
</g>
<defs>
<linearGradient id="paint0_linear_207_538" x1="12.9098" y1="9.45615" x2="30.486" y2="20.5269" gradientUnits="userSpaceOnUse">
<stop stop-color="#0A6FCC"/>
<stop offset="1" stop-color="#3BED4D" stop-opacity="0.75"/>
</linearGradient>
<clipPath id="clip0_207_538">
<rect width="12" height="6.99085" fill="white" transform="translate(23.0001 14.7939) rotate(90)"/>
</clipPath>
</defs>
</svg>
