<svg width="39" height="30" viewBox="0 0 39 30" fill="none" xmlns="http://www.w3.org/2000/svg">
<path d="M0 16C0 17.1046 0.895431 18 2 18H2.33333C3.4379 18 4.33333 17.1046 4.33333 16V14C4.33333 12.8954 3.4379 12 2.33333 12H2C0.89543 12 0 12.8954 0 14V16ZM0 28C0 29.1046 0.895431 30 2 30H2.33333C3.4379 30 4.33333 29.1046 4.33333 28V26C4.33333 24.8954 3.4379 24 2.33333 24H2C0.89543 24 0 24.8954 0 26V28ZM0 4C0 5.10457 0.895431 6 2 6H2.33333C3.4379 6 4.33333 5.10457 4.33333 4V2C4.33333 0.89543 3.4379 0 2.33333 0H2C0.89543 0 0 0.895431 0 2V4ZM8.66667 16C8.66667 17.1046 9.5621 18 10.6667 18H37C38.1046 18 39 17.1046 39 16V14C39 12.8954 38.1046 12 37 12H10.6667C9.5621 12 8.66667 12.8954 8.66667 14V16ZM8.66667 28C8.66667 29.1046 9.5621 30 10.6667 30H37C38.1046 30 39 29.1046 39 28V26C39 24.8954 38.1046 24 37 24H10.6667C9.5621 24 8.66667 24.8954 8.66667 26V28ZM10.6667 0C9.5621 0 8.66667 0.895431 8.66667 2V4C8.66667 5.10457 9.5621 6 10.6667 6H37C38.1046 6 39 5.10457 39 4V2C39 0.89543 38.1046 0 37 0H10.6667ZM0 16C0 17.1046 0.895431 18 2 18H2.33333C3.4379 18 4.33333 17.1046 4.33333 16V14C4.33333 12.8954 3.4379 12 2.33333 12H2C0.89543 12 0 12.8954 0 14V16ZM0 28C0 29.1046 0.895431 30 2 30H2.33333C3.4379 30 4.33333 29.1046 4.33333 28V26C4.33333 24.8954 3.4379 24 2.33333 24H2C0.89543 24 0 24.8954 0 26V28ZM0 4C0 5.10457 0.895431 6 2 6H2.33333C3.4379 6 4.33333 5.10457 4.33333 4V2C4.33333 0.89543 3.4379 0 2.33333 0H2C0.89543 0 0 0.895431 0 2V4ZM8.66667 16C8.66667 17.1046 9.5621 18 10.6667 18H37C38.1046 18 39 17.1046 39 16V14C39 12.8954 38.1046 12 37 12H10.6667C9.5621 12 8.66667 12.8954 8.66667 14V16ZM8.66667 28C8.66667 29.1046 9.5621 30 10.6667 30H37C38.1046 30 39 29.1046 39 28V26C39 24.8954 38.1046 24 37 24H10.6667C9.5621 24 8.66667 24.8954 8.66667 26V28ZM10.6667 0C9.5621 0 8.66667 0.895431 8.66667 2V4C8.66667 5.10457 9.5621 6 10.6667 6H37C38.1046 6 39 5.10457 39 4V2C39 0.89543 38.1046 0 37 0H10.6667Z" fill="url(#paint0_linear_327_734)"/>
<defs>
<linearGradient id="paint0_linear_327_734" x1="-17.3494" y1="43.3009" x2="34.4421" y2="-18.978" gradientUnits="userSpaceOnUse">
<stop stop-color="#0A6FCC"/>
<stop offset="1" stop-color="#3BED4D" stop-opacity="0.75"/>
</linearGradient>
</defs>
</svg>
