<svg width="15" height="16" viewBox="0 0 15 16" fill="none" xmlns="http://www.w3.org/2000/svg">
<path d="M7.4925 0.500488C3.3525 0.500488 0 3.86049 0 8.00049C0 12.1405 3.3525 15.5005 7.4925 15.5005C11.64 15.5005 15 12.1405 15 8.00049C15 3.86049 11.64 0.500488 7.4925 0.500488ZM12.69 5.00049H10.4775C10.2375 4.06299 9.8925 3.16299 9.4425 2.33049C10.8225 2.80299 11.97 3.76299 12.69 5.00049ZM7.5 2.03049C8.1225 2.93049 8.61 3.92799 8.9325 5.00049H6.0675C6.39 3.92799 6.8775 2.93049 7.5 2.03049ZM1.695 9.50049C1.575 9.02049 1.5 8.51799 1.5 8.00049C1.5 7.48299 1.575 6.98049 1.695 6.50049H4.23C4.17 6.99549 4.125 7.49049 4.125 8.00049C4.125 8.51049 4.17 9.00549 4.23 9.50049H1.695ZM2.31 11.0005H4.5225C4.7625 11.938 5.1075 12.838 5.5575 13.6705C4.1775 13.198 3.03 12.2455 2.31 11.0005ZM4.5225 5.00049H2.31C3.03 3.75549 4.1775 2.80299 5.5575 2.33049C5.1075 3.16299 4.7625 4.06299 4.5225 5.00049ZM7.5 13.9705C6.8775 13.0705 6.39 12.073 6.0675 11.0005H8.9325C8.61 12.073 8.1225 13.0705 7.5 13.9705ZM9.255 9.50049H5.745C5.6775 9.00549 5.625 8.51049 5.625 8.00049C5.625 7.49049 5.6775 6.98799 5.745 6.50049H9.255C9.3225 6.98799 9.375 7.49049 9.375 8.00049C9.375 8.51049 9.3225 9.00549 9.255 9.50049ZM9.4425 13.6705C9.8925 12.838 10.2375 11.938 10.4775 11.0005H12.69C11.97 12.238 10.8225 13.198 9.4425 13.6705ZM10.77 9.50049C10.83 9.00549 10.875 8.51049 10.875 8.00049C10.875 7.49049 10.83 6.99549 10.77 6.50049H13.305C13.425 6.98049 13.5 7.48299 13.5 8.00049C13.5 8.51799 13.425 9.02049 13.305 9.50049H10.77Z" fill="url(#paint0_linear_318_4374)"/>
<defs>
<linearGradient id="paint0_linear_318_4374" x1="-6.67286" y1="22.1509" x2="19.5846" y2="-2.13701" gradientUnits="userSpaceOnUse">
<stop stop-color="#0A6FCC"/>
<stop offset="1" stop-color="#3BED4D" stop-opacity="0.75"/>
</linearGradient>
</defs>
</svg>
