<svg width="92" height="30" viewBox="0 0 92 30" fill="none" xmlns="http://www.w3.org/2000/svg">
<path fill-rule="evenodd" clip-rule="evenodd" d="M7.49457 0.00056303C7.49457 0.000386912 7.49471 0.000244141 7.49488 0.000244141H14.9939C14.9941 0.000244141 14.9942 0.000377597 14.9942 0.000542224C14.9942 0.000706791 14.9943 0.000840223 14.9945 0.000840311C23.2745 0.00530225 29.9855 6.71898 29.9855 15.0001C29.9855 23.2821 23.273 29.9964 14.9917 29.9993C14.9887 29.9993 14.9862 29.9969 14.9862 29.9939C14.9862 29.9909 14.9838 29.9885 14.9808 29.9885H11.5781C10.9004 29.9885 10.351 29.4391 10.351 28.7614V23.7185C10.351 23.0409 10.9004 22.4915 11.5781 22.4915H15.3372C19.3164 22.3084 22.4862 19.0243 22.4862 14.9999C22.4862 10.858 19.1285 7.50029 14.9866 7.50029H14.9864C14.9863 7.50029 14.9862 7.5002 14.9862 7.50008C14.9862 7.49997 14.9861 7.49987 14.986 7.49987H9.03946H8.22866C7.82603 7.49987 7.49963 7.82627 7.49963 8.22891V28.7732C7.49963 29.4509 6.95025 30.0003 6.27257 30.0003H1.54489H0.734098C0.328667 30.0003 0 29.6716 0 29.2662V1.22794C0 0.550256 0.549374 0.00088192 1.22706 0.00088192H7.49425C7.49442 0.00088192 7.49457 0.000739148 7.49457 0.00056303Z" fill="url(#paint0_linear_201_1339)"/>
<path d="M40.7584 22.381C40.3647 22.381 40.0642 22.2722 39.857 22.0546C39.6498 21.837 39.5462 21.5314 39.5462 21.1376V12.5122C39.5462 12.1081 39.6498 11.8024 39.857 11.5952C40.0746 11.388 40.3802 11.2844 40.774 11.2844H44.5505C45.7731 11.2844 46.716 11.5952 47.3791 12.2169C48.0422 12.8282 48.3737 13.683 48.3737 14.7812C48.3737 15.8795 48.0422 16.7394 47.3791 17.3611C46.716 17.9827 45.7731 18.2936 44.5505 18.2936H41.9551V21.1376C41.9551 21.5314 41.8515 21.837 41.6443 22.0546C41.4474 22.2722 41.1521 22.381 40.7584 22.381ZM41.9551 16.4286H44.1464C44.7681 16.4286 45.2395 16.2887 45.5607 16.009C45.8923 15.7292 46.058 15.32 46.058 14.7812C46.058 14.2424 45.8923 13.8384 45.5607 13.569C45.2395 13.2996 44.7681 13.1649 44.1464 13.1649H41.9551V16.4286ZM51.0789 22.381C50.6852 22.381 50.3847 22.2722 50.1775 22.0546C49.9703 21.837 49.8667 21.5314 49.8667 21.1376V12.5122C49.8667 12.1081 49.9703 11.8024 50.1775 11.5952C50.3951 11.388 50.7007 11.2844 51.0944 11.2844H54.871C56.0936 11.2844 57.0364 11.5797 57.6995 12.1703C58.3626 12.7608 58.6942 13.5845 58.6942 14.6413C58.6942 15.3252 58.5439 15.9157 58.2435 16.4131C57.943 16.9104 57.5078 17.2937 56.938 17.5631C56.3785 17.8325 55.6895 17.9672 54.871 17.9672L54.9953 17.703H55.6325C56.0677 17.703 56.4458 17.8118 56.767 18.0294C57.0986 18.2366 57.3835 18.5578 57.6218 18.9929L58.5854 20.7802C58.7304 21.0392 58.7978 21.2931 58.7874 21.5417C58.7771 21.7904 58.6838 21.9924 58.5077 22.1478C58.3315 22.3033 58.0725 22.381 57.7306 22.381C57.3887 22.381 57.1089 22.3084 56.8914 22.1634C56.6841 22.0183 56.4976 21.7956 56.3319 21.4951L54.8399 18.7443C54.6845 18.4542 54.4928 18.2573 54.2649 18.1537C54.0473 18.0501 53.7779 17.9983 53.4567 17.9983H52.2756V21.1376C52.2756 21.5314 52.172 21.837 51.9647 22.0546C51.7679 22.2722 51.4726 22.381 51.0789 22.381ZM52.2756 16.2576H54.4358C55.0782 16.2576 55.56 16.1281 55.8812 15.8691C56.2127 15.6101 56.3785 15.2216 56.3785 14.7035C56.3785 14.1958 56.2127 13.8125 55.8812 13.5534C55.56 13.2944 55.0782 13.1649 54.4358 13.1649H52.2756V16.2576ZM65.6941 22.412C64.6166 22.412 63.6685 22.1789 62.85 21.7127C62.0419 21.2361 61.4099 20.573 60.954 19.7234C60.5085 18.8738 60.2857 17.8843 60.2857 16.755C60.2857 15.895 60.41 15.1231 60.6587 14.4393C60.9177 13.7451 61.2855 13.1545 61.7621 12.6676C62.2387 12.1703 62.8086 11.7869 63.4717 11.5175C64.1452 11.2481 64.886 11.1134 65.6941 11.1134C66.7924 11.1134 67.7456 11.3466 68.5537 11.8128C69.3619 12.279 69.9887 12.937 70.4342 13.7866C70.8901 14.6258 71.1181 15.6101 71.1181 16.7394C71.1181 17.5994 70.9885 18.3765 70.7295 19.0706C70.4705 19.7648 70.1027 20.3606 69.6261 20.8579C69.1495 21.3552 68.5796 21.7386 67.9165 22.008C67.2534 22.2774 66.5126 22.412 65.6941 22.412ZM65.6941 20.3606C66.3054 20.3606 66.8235 20.2207 67.2483 19.941C67.6834 19.6509 68.015 19.2364 68.2429 18.6976C68.4812 18.1485 68.6004 17.501 68.6004 16.755C68.6004 15.6153 68.3465 14.7346 67.8388 14.1129C67.3311 13.4809 66.6162 13.1649 65.6941 13.1649C65.0932 13.1649 64.5751 13.3048 64.14 13.5845C63.7048 13.8643 63.3733 14.2735 63.1453 14.8123C62.9174 15.3511 62.8034 15.9986 62.8034 16.755C62.8034 17.8843 63.0573 18.7702 63.5649 19.4126C64.0726 20.0446 64.7823 20.3606 65.6941 20.3606ZM73.21 22.381C72.8991 22.381 72.6401 22.2981 72.4329 22.1323C72.236 21.9562 72.1221 21.7438 72.091 21.4951C72.0599 21.2361 72.1428 20.9719 72.3396 20.7025L75.7743 16.1489V17.2212L72.4795 12.8385C72.2827 12.5588 72.1946 12.2946 72.2153 12.0459C72.2464 11.7869 72.3604 11.5745 72.5572 11.4087C72.7644 11.2326 73.0183 11.1445 73.3187 11.1445C73.5778 11.1445 73.8005 11.2067 73.987 11.331C74.1839 11.4554 74.3807 11.6522 74.5776 11.9216L77.1419 15.465H76.3649L78.9137 11.9216C79.1105 11.6419 79.3074 11.445 79.5042 11.331C79.7011 11.2067 79.929 11.1445 80.188 11.1445C80.4989 11.1445 80.7527 11.2274 80.9496 11.3932C81.1568 11.559 81.2708 11.7714 81.2915 12.0304C81.3226 12.2791 81.2345 12.5484 81.0273 12.8385L77.717 17.2212V16.1489L81.1361 20.7025C81.3433 20.9719 81.4314 21.2361 81.4003 21.4951C81.3796 21.7438 81.2656 21.9562 81.0584 22.1323C80.8615 22.2981 80.6025 22.381 80.2813 22.381C80.0326 22.381 79.8099 22.3188 79.613 22.1945C79.4265 22.0701 79.2297 21.8681 79.0224 21.5883L76.3493 17.905H77.1419L74.4688 21.5883C74.272 21.8681 74.0751 22.0701 73.8782 22.1945C73.6814 22.3188 73.4586 22.381 73.21 22.381ZM86.9426 22.381C86.5489 22.381 86.2484 22.2722 86.0412 22.0546C85.834 21.837 85.7304 21.5262 85.7304 21.1221V16.6151L86.2277 17.9983L82.5599 12.7919C82.4149 12.5743 82.3527 12.3412 82.3734 12.0926C82.3942 11.8335 82.4978 11.6108 82.6843 11.4243C82.8708 11.2378 83.135 11.1445 83.4769 11.1445C83.7255 11.1445 83.9483 11.2067 84.1452 11.331C84.3524 11.4554 84.5492 11.6522 84.7357 11.9216L87.2224 15.5117H86.725L89.2117 11.9216C89.4085 11.6419 89.6002 11.445 89.7867 11.331C89.9835 11.2067 90.2115 11.1445 90.4705 11.1445C90.8021 11.1445 91.0611 11.2326 91.2476 11.4087C91.4341 11.5745 91.5325 11.7869 91.5429 12.0459C91.5532 12.2946 91.4652 12.5536 91.2787 12.823L87.6575 17.9983L88.1393 16.6151V21.1221C88.1393 21.9613 87.7404 22.381 86.9426 22.381Z" fill="url(#paint1_linear_201_1339)"/>
<defs>
<linearGradient id="paint0_linear_201_1339" x1="-13.3393" y1="43.3009" x2="39.1734" y2="-5.2497" gradientUnits="userSpaceOnUse">
<stop stop-color="#0A6FCC"/>
<stop offset="1" stop-color="#3BED4D" stop-opacity="0.75"/>
</linearGradient>
<linearGradient id="paint1_linear_201_1339" x1="14.6744" y1="32.0907" x2="30.8247" y2="-18.3281" gradientUnits="userSpaceOnUse">
<stop stop-color="#0A6FCC"/>
<stop offset="1" stop-color="#3BED4D" stop-opacity="0.75"/>
</linearGradient>
</defs>
</svg>
