<svg width="30" height="30" viewBox="0 0 30 30" fill="none" xmlns="http://www.w3.org/2000/svg">
<path d="M15 30C23.2843 30 30 23.2843 30 15C30 6.71573 23.2843 0 15 0C6.71573 0 0 6.71573 0 15C0 23.2843 6.71573 30 15 30Z" fill="#5F98D1"/>
<path d="M24.3641 8.64111H5.59911L12.3971 15.7196L14.3588 17.7059C13.2915 17.4619 13.2254 17.3099 12.7525 16.9237C12.5044 16.7212 12.0251 16.1707 11.2971 15.4273L5.16898 9.16951V20.8192L5.65325 21.3035L5.59905 21.3599L14.2195 29.9804C14.4781 29.9937 14.7382 30.0005 15 30.0005C23.2843 30.0005 30 23.2848 30 15.0005C30 14.7517 29.9936 14.5045 29.9817 14.2587L24.3641 8.64111Z" fill="#3A6DA1"/>
<path d="M5.16898 9.16951V20.8192L10.8501 14.9708L5.16898 9.16951ZM24.831 9.16951V20.8192L19.1782 14.9944L24.831 9.16951ZM5.59911 8.64111H24.3641L16.9892 16.3203C16.7294 16.5907 16.4177 16.8059 16.0727 16.9529C15.7277 17.0999 15.3566 17.1756 14.9816 17.1756C14.6066 17.1756 14.2355 17.0999 13.8905 16.9529C13.5456 16.8059 13.2338 16.5907 12.9741 16.3203L5.59911 8.64111Z" fill="white"/>
<path d="M17.4146 16.728C16.7818 17.3868 15.8951 17.7648 14.9816 17.7648C14.0682 17.7648 13.1814 17.387 12.5487 16.7281L11.2977 15.4255L5.59909 21.3592H24.364L18.6654 15.4255L17.4146 16.728Z" fill="white"/>
</svg>
