<svg width="30" height="19" viewBox="0 0 30 19" fill="none" xmlns="http://www.w3.org/2000/svg">
<path d="M30 9.74805C30 14.7004 26 18.748 21 18.748C16.0476 18.748 12 14.7004 12 9.74805C12 4.79567 16 0.748047 20.9524 0.748047C26 0.748047 30 4.79567 30 9.74805Z" fill="#FFB600"/>
<path d="M21 0.748047C25.9524 0.748047 30 4.79567 30 9.74805C30 14.7004 26 18.748 21 18.748C16.0476 18.748 12 14.7004 12 9.74805" fill="#F7981D"/>
<path d="M21 0.748047C25.9524 0.748047 30 4.79567 30 9.74805C30 14.7004 26 18.748 21 18.748" fill="#FF8500"/>
<path d="M8.90478 0.748047C4.00002 0.795666 1.52588e-05 4.79567 1.52588e-05 9.74805C1.52588e-05 14.7004 4.00002 18.748 9.00002 18.748C11.3333 18.748 13.4286 17.8433 15.0476 16.4147C15.381 16.129 15.6667 15.7957 15.9524 15.4623H14.0953C13.8572 15.1766 13.6191 14.8433 13.4286 14.5576H16.6191C16.8095 14.2719 17 13.9385 17.1429 13.6052H12.9048C12.7619 13.3195 12.6191 12.9861 12.5238 12.6528H17.4762C17.7619 11.748 17.9524 10.7957 17.9524 9.79567C17.9524 9.129 17.8572 8.50995 17.7619 7.8909H12.2381C12.2857 7.55757 12.381 7.27186 12.4762 6.93852H17.4286C17.3333 6.60519 17.1905 6.27186 17.0476 5.98614H12.8572C13 5.65281 13.1905 5.36709 13.381 5.03376H16.5714C16.381 4.70043 16.1429 4.36709 15.8572 4.08138H14.0953C14.381 3.74805 14.6667 3.46233 15 3.17662C13.4286 1.70043 11.2857 0.843285 8.9524 0.843285C8.9524 0.748047 8.9524 0.748047 8.90478 0.748047Z" fill="#FF5050"/>
<path d="M1.52588e-05 9.74753C1.52588e-05 14.6999 4.00002 18.7475 9.00002 18.7475C11.3333 18.7475 13.4286 17.8428 15.0476 16.4142C15.381 16.1285 15.6667 15.7952 15.9524 15.4618H14.0953C13.8572 15.1761 13.6191 14.8428 13.4286 14.5571H16.6191C16.8095 14.2713 17 13.938 17.1429 13.6047H12.9048C12.7619 13.319 12.6191 12.9856 12.5238 12.6523H17.4762C17.7619 11.7475 17.9524 10.7952 17.9524 9.79515C17.9524 9.12849 17.8572 8.50944 17.7619 7.89039H12.2381C12.2857 7.55706 12.381 7.27134 12.4762 6.93801H17.4286C17.3333 6.60468 17.1905 6.27134 17.0476 5.98563H12.8572C13 5.6523 13.1905 5.36658 13.381 5.03325H16.5714C16.381 4.69992 16.1429 4.36658 15.8572 4.08087H14.0953C14.381 3.74754 14.6667 3.46182 15 3.17611C13.4286 1.69992 11.2857 0.842773 8.9524 0.842773H8.90478" fill="#E52836"/>
<path d="M9.00002 18.7475C11.3333 18.7475 13.4286 17.8428 15.0476 16.4142C15.381 16.1285 15.6667 15.7952 15.9524 15.4618H14.0953C13.8572 15.1761 13.6191 14.8428 13.4286 14.5571H16.6191C16.8095 14.2713 17 13.938 17.1429 13.6047H12.9048C12.7619 13.319 12.6191 12.9856 12.5238 12.6523H17.4762C17.7619 11.7475 17.9524 10.7952 17.9524 9.79515C17.9524 9.12849 17.8572 8.50944 17.7619 7.89039H12.2381C12.2857 7.55706 12.381 7.27134 12.4762 6.93801H17.4286C17.3333 6.60468 17.1905 6.27134 17.0476 5.98563H12.8572C13 5.6523 13.1905 5.36658 13.381 5.03325H16.5714C16.381 4.69992 16.1429 4.36658 15.8572 4.08087H14.0953C14.381 3.74754 14.6667 3.46182 15 3.17611C13.4286 1.69992 11.2857 0.842773 8.9524 0.842773H8.90478" fill="#CB2026"/>
<path d="M12.1905 12.0331L12.3334 11.2236C12.2857 11.2236 12.1905 11.2712 12.0953 11.2712C11.7619 11.2712 11.7143 11.0807 11.7619 10.9855L12.0476 9.31882H12.5714L12.7143 8.41406H12.2381L12.3334 7.84263H11.381C11.381 7.84263 10.8095 10.9855 10.8095 11.3664C10.8095 11.9379 11.1429 12.176 11.5714 12.176C11.8572 12.176 12.0953 12.0807 12.1905 12.0331ZM12.5238 10.5093C12.5238 11.8426 13.4286 12.176 14.1905 12.176C14.9048 12.176 15.1905 12.0331 15.1905 12.0331L15.381 11.1283C15.381 11.1283 14.8572 11.3664 14.381 11.3664C13.3334 11.3664 13.5238 10.6045 13.5238 10.6045H15.4762C15.4762 10.6045 15.6191 9.98549 15.6191 9.7474C15.6191 9.12835 15.2857 8.36644 14.2381 8.36644C13.2381 8.27121 12.5238 9.31882 12.5238 10.5093ZM14.1905 9.12835C14.7143 9.12835 14.6191 9.7474 14.6191 9.79501H13.5714C13.5714 9.7474 13.6667 9.12835 14.1905 9.12835ZM20.2381 12.0331L20.4286 10.9855C20.4286 10.9855 19.9524 11.2236 19.6191 11.2236C18.9524 11.2236 18.6667 10.6998 18.6667 10.1283C18.6667 8.98549 19.2381 8.36644 19.9048 8.36644C20.381 8.36644 20.7619 8.65216 20.7619 8.65216L20.9048 7.65216C20.9048 7.65216 20.3334 7.41406 19.8095 7.41406C18.7143 7.41406 17.6191 8.36644 17.6191 10.176C17.6191 11.3664 18.1905 12.176 19.3334 12.176C19.7143 12.176 20.2381 12.0331 20.2381 12.0331ZM6.9524 8.27121C6.28573 8.27121 5.80954 8.46168 5.80954 8.46168L5.66669 9.27121C5.66669 9.27121 6.09526 9.08073 6.71431 9.08073C7.04764 9.08073 7.33335 9.12835 7.33335 9.41406C7.33335 9.60454 7.28573 9.65216 7.28573 9.65216H6.85716C6.04764 9.65216 5.14288 9.98549 5.14288 11.0807C5.14288 11.9379 5.71431 12.1283 6.04764 12.1283C6.7143 12.1283 7.00002 11.6998 7.04764 11.6998L7.00002 12.0807H7.85716L8.23811 9.46168C8.23811 8.31882 7.28573 8.27121 6.9524 8.27121ZM7.14288 10.4141C7.14288 10.5569 7.04764 11.3188 6.47621 11.3188C6.1905 11.3188 6.09526 11.0807 6.09526 10.9379C6.09526 10.6998 6.23811 10.3664 6.9524 10.3664C7.09526 10.4141 7.14288 10.4141 7.14288 10.4141ZM9.14288 12.1283C9.38097 12.1283 10.5714 12.176 10.5714 10.8903C10.5714 9.69978 9.42859 9.93787 9.42859 9.46168C9.42859 9.22359 9.61907 9.12835 9.9524 9.12835C10.0953 9.12835 10.6191 9.17597 10.6191 9.17597L10.7619 8.31882C10.7619 8.31882 10.4286 8.22359 9.85716 8.22359C9.14288 8.22359 8.42859 8.5093 8.42859 9.46168C8.42859 10.5569 9.61907 10.4617 9.61907 10.8903C9.61907 11.176 9.28573 11.2236 9.04764 11.2236C8.61907 11.2236 8.1905 11.0807 8.1905 11.0807L8.04764 11.9379C8.09526 12.0331 8.33335 12.1283 9.14288 12.1283ZM28.1429 7.5093L27.9524 8.79501C27.9524 8.79501 27.5714 8.31882 27.0476 8.31882C26.1905 8.31882 25.4286 9.36644 25.4286 10.6045C25.4286 11.3664 25.8095 12.176 26.6191 12.176C27.1905 12.176 27.5238 11.795 27.5238 11.795L27.4762 12.1283H28.4286L29.1429 7.55692L28.1429 7.5093ZM27.7143 10.0331C27.7143 10.5569 27.4762 11.2236 26.9524 11.2236C26.6191 11.2236 26.4286 10.9379 26.4286 10.4617C26.4286 9.69978 26.7619 9.22359 27.1905 9.22359C27.5238 9.22359 27.7143 9.46168 27.7143 10.0331ZM1.76192 12.0807L2.33335 8.65216L2.42859 12.0807H3.09526L4.33335 8.65216L3.80954 12.0807H4.80954L5.57145 7.5093H4.00002L3.04764 10.3188L3.00002 7.5093H1.61907L0.857162 12.0807H1.76192ZM16.5238 12.0807C16.8095 10.5093 16.8572 9.22359 17.5238 9.46168C17.6191 8.84263 17.7619 8.60454 17.8572 8.36644H17.6667C17.2381 8.36644 16.9048 8.93787 16.9048 8.93787L17 8.41406H16.0953L15.4762 12.1283H16.5238V12.0807ZM22.4286 8.27121C21.7619 8.27121 21.2857 8.46168 21.2857 8.46168L21.1429 9.27121C21.1429 9.27121 21.5714 9.08073 22.1905 9.08073C22.5238 9.08073 22.8095 9.12835 22.8095 9.41406C22.8095 9.60454 22.7619 9.65216 22.7619 9.65216H22.3334C21.5238 9.65216 20.6191 9.98549 20.6191 11.0807C20.6191 11.9379 21.1905 12.1283 21.5238 12.1283C22.1905 12.1283 22.4762 11.6998 22.5238 11.6998L22.4762 12.0807H23.3334L23.7143 9.46168C23.7619 8.31882 22.7619 8.27121 22.4286 8.27121ZM22.6667 10.4141C22.6667 10.5569 22.5714 11.3188 22 11.3188C21.7143 11.3188 21.6191 11.0807 21.6191 10.9379C21.6191 10.6998 21.7619 10.3664 22.4762 10.3664C22.6191 10.4141 22.6191 10.4141 22.6667 10.4141ZM24.5238 12.0807C24.8095 10.5093 24.8572 9.22359 25.5238 9.46168C25.6191 8.84263 25.7619 8.60454 25.8572 8.36644H25.6667C25.2381 8.36644 24.9048 8.93787 24.9048 8.93787L25 8.41406H24.0953L23.4762 12.1283H24.5238V12.0807Z" fill="white"/>
<path d="M10.7143 11.3664C10.7143 11.9379 11.0476 12.176 11.4762 12.176C11.8095 12.176 12.0953 12.0807 12.1905 12.0331L12.3334 11.2236C12.2857 11.2236 12.1905 11.2712 12.0953 11.2712C11.7619 11.2712 11.7143 11.0807 11.7619 10.9855L12.0476 9.31882H12.5714L12.7143 8.41406H12.2381L12.3334 7.84263M13 10.5093C13 11.8426 13.4286 12.176 14.1905 12.176C14.9048 12.176 15.1905 12.0331 15.1905 12.0331L15.381 11.1283C15.381 11.1283 14.8572 11.3664 14.381 11.3664C13.3334 11.3664 13.5238 10.6045 13.5238 10.6045H15.4762C15.4762 10.6045 15.6191 9.98549 15.6191 9.7474C15.6191 9.12835 15.2857 8.36644 14.2381 8.36644C13.2381 8.27121 13 9.31882 13 10.5093ZM14.1905 9.12835C14.7143 9.12835 14.8095 9.7474 14.8095 9.79501H13.5714C13.5714 9.7474 13.6667 9.12835 14.1905 9.12835ZM20.2381 12.0331L20.4286 10.9855C20.4286 10.9855 19.9524 11.2236 19.6191 11.2236C18.9524 11.2236 18.6667 10.6998 18.6667 10.1283C18.6667 8.98549 19.2381 8.36644 19.9048 8.36644C20.381 8.36644 20.7619 8.65216 20.7619 8.65216L20.9048 7.65216C20.9048 7.65216 20.3334 7.41406 19.8095 7.41406C18.7143 7.41406 18.0953 8.36644 18.0953 10.176C18.0953 11.3664 18.1905 12.176 19.3334 12.176C19.7143 12.176 20.2381 12.0331 20.2381 12.0331ZM5.66669 9.31882C5.66669 9.31882 6.09526 9.12835 6.71431 9.12835C7.04764 9.12835 7.33335 9.17597 7.33335 9.46168C7.33335 9.65216 7.28573 9.69978 7.28573 9.69978H6.85716C6.04764 9.69978 5.14288 10.0331 5.14288 11.1283C5.14288 11.9855 5.71431 12.176 6.04764 12.176C6.7143 12.176 7.00002 11.7474 7.04764 11.7474L7.00002 12.1283H7.85716L8.23811 9.5093C8.23811 8.41406 7.28573 8.36644 6.90478 8.36644M7.61907 10.4141C7.61907 10.5569 7.04764 11.3188 6.47621 11.3188C6.1905 11.3188 6.09526 11.0807 6.09526 10.9379C6.09526 10.6998 6.23811 10.3664 6.9524 10.3664C7.09526 10.4141 7.61907 10.4141 7.61907 10.4141ZM8.09526 12.0331C8.09526 12.0331 8.38097 12.1283 9.1905 12.1283C9.42859 12.1283 10.6191 12.176 10.6191 10.8903C10.6191 9.69978 9.47621 9.93787 9.47621 9.46168C9.47621 9.22359 9.66669 9.12835 10 9.12835C10.1429 9.12835 10.6667 9.17597 10.6667 9.17597L10.8095 8.31882C10.8095 8.31882 10.4762 8.22359 9.90478 8.22359C9.1905 8.22359 8.9524 8.5093 8.9524 9.46168C8.9524 10.5569 9.66669 10.4617 9.66669 10.8903C9.66669 11.176 9.33335 11.2236 9.09526 11.2236M27.9524 8.79501C27.9524 8.79501 27.5714 8.31882 27.0476 8.31882C26.1905 8.31882 25.9048 9.36644 25.9048 10.6045C25.9048 11.3664 25.8095 12.176 26.6191 12.176C27.1905 12.176 27.5238 11.795 27.5238 11.795L27.4762 12.1283H28.4286L29.1429 7.55692M27.9048 10.0331C27.9048 10.5569 27.4762 11.2236 26.9524 11.2236C26.6191 11.2236 26.4286 10.9379 26.4286 10.4617C26.4286 9.69978 26.7619 9.22359 27.1905 9.22359C27.5238 9.22359 27.9048 9.46168 27.9048 10.0331ZM1.76192 12.0807L2.33335 8.65216L2.42859 12.0807H3.09526L4.33335 8.65216L3.80954 12.0807H4.80954L5.57145 7.5093H4.38097L3.04764 10.3188L3.00002 7.5093H2.47621L0.857162 12.0807H1.76192ZM15.5238 12.0807H16.5238C16.8095 10.5093 16.8572 9.22359 17.5238 9.46168C17.6191 8.84263 17.7619 8.60454 17.8572 8.36644H17.6667C17.2381 8.36644 16.9048 8.93787 16.9048 8.93787L17 8.41406M21.1429 9.31882C21.1429 9.31882 21.5714 9.12835 22.1905 9.12835C22.5238 9.12835 22.8095 9.17597 22.8095 9.46168C22.8095 9.65216 22.7619 9.69978 22.7619 9.69978H22.3334C21.5238 9.69978 20.6191 10.0331 20.6191 11.1283C20.6191 11.9855 21.1905 12.176 21.5238 12.176C22.1905 12.176 22.4762 11.7474 22.5238 11.7474L22.4762 12.1283H23.3334L23.7143 9.5093C23.7143 8.41406 22.7619 8.36644 22.381 8.36644M23.0953 10.4141C23.0953 10.5569 22.5238 11.3188 21.9524 11.3188C21.6667 11.3188 21.5714 11.0807 21.5714 10.9379C21.5714 10.6998 21.7143 10.3664 22.4286 10.3664C22.6191 10.4141 23.0953 10.4141 23.0953 10.4141ZM23.5238 12.0807H24.5238C24.8095 10.5093 24.8572 9.22359 25.5238 9.46168C25.6191 8.84263 25.7619 8.60454 25.8572 8.36644H25.6667C25.2381 8.36644 24.9048 8.93787 24.9048 8.93787L25 8.41406" fill="#DCE5E5"/>
</svg>
