<svg width="90" height="126" viewBox="0 0 90 126" fill="none" xmlns="http://www.w3.org/2000/svg">
<path d="M70.0316 0.667969H3.59133C1.80496 0.667969 0.357208 2.11572 0.357208 3.90185V122.435C0.357208 124.22 1.80496 125.668 3.59109 125.668H86.4093C88.1954 125.668 89.6432 124.22 89.6432 122.435V19.0156C89.6432 18.1125 89.2665 17.2514 88.6026 16.6391L72.224 1.52539C71.627 0.974174 70.8442 0.668048 70.0316 0.667969Z" fill="#2375C1"/>
<path d="M88.6023 16.6391L72.2239 1.52539C71.6269 0.974174 70.8441 0.668048 70.0316 0.667969L56.7174 0.667969L73.585 16.2339C74.0517 16.6647 74.4241 17.1875 74.6788 17.7693C74.9335 18.3511 75.065 18.9793 75.065 19.6145V125.668H86.409C88.1951 125.668 89.6428 124.22 89.6428 122.434V19.0156C89.6428 18.1125 89.2652 17.2514 88.6023 16.6391Z" fill="#145897"/>
<path d="M69.7485 115.483H20.2516C14.154 115.483 9.21014 110.539 9.21014 104.442V38.3833C9.21014 32.2856 14.154 27.3418 20.2516 27.3418H69.7485C75.8461 27.3418 80.79 32.2856 80.79 38.3833V104.442C80.79 110.539 75.8461 115.483 69.7485 115.483Z" fill="#FFCC3B"/>
<path d="M69.7485 115.483H20.2516C14.154 115.483 9.21014 110.539 9.21014 104.442V38.3833C9.21014 32.2856 14.154 27.3418 20.2516 27.3418H69.7485C75.8461 27.3418 80.79 32.2856 80.79 38.3833V104.442C80.79 110.539 75.8461 115.483 69.7485 115.483Z" fill="#FFCC3B"/>
<path d="M69.7484 27.3418H66.1844V115.483H69.7484C75.846 115.483 80.7899 110.539 80.7899 104.441V38.3833C80.7899 32.2856 75.846 27.3418 69.7484 27.3418Z" fill="#EFB525"/>
<path d="M38.6832 57.1946H51.3175C54.1024 57.1946 56.3597 54.9373 56.3597 52.1526V27.3418H33.6412V52.1526C33.6412 54.9363 35.8985 57.1946 38.6832 57.1946ZM51.3175 85.6313H38.6832C35.8985 85.6313 33.6412 87.8887 33.6412 90.6724V115.483H56.3597V90.6724C56.3597 87.8887 54.1024 85.6313 51.3175 85.6313Z" fill="#FFD876"/>
<path d="M80.79 62.9302H76.2245C75.9091 62.9302 75.623 62.7471 75.497 62.4639C72.6132 56.0039 66.1816 51.8306 59.111 51.8306H58.246V27.3408H54.4733V52.1521C54.4733 53.8916 53.0573 55.3079 51.3176 55.3079H38.6833C36.9428 55.3079 35.5265 53.8916 35.5265 52.1521V27.3411H31.7541V51.8296H30.8891C23.8185 51.8296 17.3869 56.0037 14.5029 62.4639C14.3771 62.7471 14.091 62.9302 13.7753 62.9302H9.2099V66.7029H13.7753C15.5778 66.7029 17.2153 65.6426 17.9487 64.0022C20.226 58.9001 25.3061 55.6023 30.8891 55.6023H32.6791C33.8769 57.6785 36.1181 59.0803 38.6826 59.0803H51.3168C53.881 59.0803 56.1232 57.6785 57.321 55.6023H59.11C64.6938 55.6023 69.7731 58.9001 72.0514 64.0022C72.7839 65.6426 74.4223 66.7029 76.2238 66.7029H80.7892V62.9302H80.79Z" fill="#EFB525"/>
<path d="M75.4969 62.4644C73.6231 58.2693 70.2528 55.0391 66.1844 53.2891V57.5024C68.7259 58.9692 70.8077 61.2158 72.0514 64.0037C72.7838 65.644 74.4222 66.7034 76.2247 66.7034H80.7901V62.9307H76.2247C75.909 62.9307 75.6227 62.7476 75.4969 62.4644Z" fill="#E59D0E"/>
<path d="M80.79 76.1211H76.2245C74.4223 76.1211 72.7848 77.1814 72.0514 78.8218C69.7741 83.9241 64.6938 87.2217 59.111 87.2217H57.321C56.1232 85.1458 53.881 83.7437 51.3176 83.7437H38.6833C36.1188 83.7437 33.8769 85.1458 32.6791 87.2217H30.8891C25.3061 87.2217 20.226 83.9241 17.9487 78.8218C17.2153 77.1814 15.5778 76.1211 13.7753 76.1211H9.2099V79.8938H13.7753C14.091 79.8938 14.3771 80.0769 14.5029 80.3601C17.3869 86.8201 23.8193 90.9946 30.8891 90.9946H31.7541V115.483H35.5268V90.6721C35.5268 88.9326 36.9428 87.5164 38.6835 87.5164H51.3178C53.0571 87.5164 54.4733 88.9326 54.4733 90.6721V115.483H58.246V90.9946H59.111C66.1806 90.9946 72.6132 86.8203 75.497 80.3601C75.623 80.0769 75.9091 79.8938 76.2245 79.8938H80.79V76.1211Z" fill="#EFB525"/>
<path d="M72.0514 78.8218C70.8077 81.6094 68.7262 83.8562 66.1844 85.3232V89.5354C70.2538 87.7854 73.6241 84.5562 75.4969 80.3601C75.6229 80.0769 75.909 79.8938 76.2245 79.8938H80.7899V76.1211H76.2245C74.4222 76.1211 72.7848 77.1814 72.0514 78.8218Z" fill="#E59D0E"/>
</svg>
