<svg width="30" height="30" viewBox="0 0 30 30" fill="none" xmlns="http://www.w3.org/2000/svg">
<path d="M14.9998 29.9997C23.284 29.9997 29.9996 23.284 29.9996 14.9998C29.9996 6.71565 23.284 0 14.9998 0C6.71565 0 0 6.71565 0 14.9998C0 23.284 6.71565 29.9997 14.9998 29.9997Z" fill="#41B4E6"/>
<path d="M30 14.9996C30 14.6341 29.9862 14.2719 29.9606 13.9129L23.7438 7.69629L6.25616 14.5751L12.947 21.2661L13.0348 21.582L13.1484 21.4675L13.1489 21.4679L13.0348 21.582L20.4362 28.9834C26.0331 26.8061 30 21.3664 30 14.9996Z" fill="#0091C8"/>
<path d="M13.5432 17.185L20.322 22.3029L23.7438 7.69629L6.25607 14.5751L11.5774 16.3377L21.2889 9.82348L13.5432 17.185Z" fill="white"/>
<path d="M11.5774 16.3375L13.0348 21.5818L13.5432 17.1847L21.2889 9.82324L11.5774 16.3375Z" fill="#D2D2D7"/>
<path d="M15.7463 18.8489L13.0348 21.5827L13.5432 17.1855L15.7463 18.8489Z" fill="#B9B9BE"/>
</svg>
