<svg width="57" height="18" viewBox="0 0 57 18" fill="none" xmlns="http://www.w3.org/2000/svg">
<path d="M10.3784 2.28086C10.031 0.930303 8.92323 0.019438 7.41873 0H0.359624L0.286926 0.327724C5.79352 1.68527 10.4155 5.8625 11.9149 9.7917L10.3784 2.28086Z" fill="#EFC75E"/>
<path d="M23.4685 0L20.6222 17.7123H25.1716L28.0162 0H23.4685ZM37.1913 7.215C35.6015 6.4299 34.6269 5.90002 34.6269 5.09703C34.6463 4.36694 35.451 3.61897 37.2481 3.61897C38.7262 3.58184 39.8125 3.9292 40.6367 4.2748L41.0496 4.45908L41.6681 0.753223C40.7695 0.405865 39.3447 0.0231304 37.5848 0.0231304C33.0921 0.0231304 29.9285 2.35899 29.9089 5.6998C29.8718 8.16512 32.1738 9.53317 33.8966 10.3538C35.6565 11.1957 36.2556 11.7415 36.2556 12.4895C36.2361 13.6379 34.8325 14.1678 33.5228 14.1678C31.7081 14.1678 30.7332 13.8949 29.2534 13.255L28.6544 12.9821L28.0181 16.8333C29.0868 17.3084 31.0522 17.7265 33.0922 17.7479C37.8668 17.7479 40.9736 15.4474 41.0126 11.8869C41.0282 9.93379 39.8143 8.43784 37.1913 7.215ZM53.3315 0.0548147H49.8116C48.727 0.0548147 47.9028 0.366795 47.4332 1.47981L40.6754 17.7123H45.45L46.7649 14.1979H52.1067L52.789 17.7265H57L53.3315 0.0548147ZM48.0891 10.6512C48.1812 10.6602 49.9217 4.91432 49.9217 4.91432L51.3076 10.6512H48.0891ZM16.8207 0L12.3634 12.0339L11.8778 9.66068C11.0536 6.92245 8.46974 3.94689 5.58611 2.46882L9.6677 17.6946H14.4813L21.6343 0.00194273H16.8207V0Z" fill="#2394BC"/>
</svg>
